<?xml version="1.0" encoding="UTF-8" standalone="no"?><!DOCTYPE svg PUBLIC "-//W3C//DTD SVG 1.1//EN" "http://www.w3.org/Graphics/SVG/1.1/DTD/svg11.dtd"><svg width="100%" height="100%" viewBox="0 0 64 64" version="1.1" xmlns="http://www.w3.org/2000/svg" xmlns:xlink="http://www.w3.org/1999/xlink" xml:space="preserve" xmlns:serif="http://www.serif.com/" style="fill-rule:evenodd;clip-rule:evenodd;stroke-miterlimit:10;"><path d="M47.057,60.5l-30.114,0c-7.424,0 -13.443,-6.018 -13.443,-13.444l0,-30.113c0,-7.424 6.019,-13.443 13.443,-13.443l30.114,0c7.424,0 13.443,6.019 13.443,13.443l0,30.113c0,7.425 -6.019,13.444 -13.443,13.444Z" style="fill:none;fill-rule:nonzero;stroke:#112129;stroke-width:5px;"/><path d="M32.342,12.936c-10.256,0 -18.572,8.315 -18.572,18.573c0,3.509 0.975,6.79 2.666,9.59l-3.353,9.964l10.283,-3.291c2.661,1.471 5.721,2.31 8.976,2.31c10.259,0 18.575,-8.316 18.575,-18.573c0,-10.258 -8.316,-18.573 -18.575,-18.573m0,34.035c-3.139,0 -6.064,-0.942 -8.505,-2.558l-5.942,1.902l1.931,-5.742c-1.851,-2.548 -2.944,-5.68 -2.944,-9.064c0,-8.527 6.936,-15.463 15.46,-15.463c8.527,0 15.463,6.936 15.463,15.463c0,8.525 -6.936,15.462 -15.463,15.462m8.71,-11.241c-0.465,-0.255 -2.753,-1.49 -3.181,-1.664c-0.429,-0.175 -0.743,-0.265 -1.077,0.198c-0.333,0.461 -1.283,1.496 -1.569,1.801c-0.289,0.307 -0.567,0.336 -1.034,0.08c-0.463,-0.255 -1.973,-0.813 -3.723,-2.496c-1.362,-1.31 -2.256,-2.897 -2.514,-3.381c-0.26,-0.485 -0.002,-0.733 0.244,-0.96c0.222,-0.205 0.495,-0.537 0.744,-0.804c0.245,-0.267 0.332,-0.463 0.502,-0.773c0.17,-0.31 0.101,-0.589 -0.009,-0.832c-0.109,-0.241 -0.97,-2.61 -1.33,-3.574c-0.36,-0.963 -0.76,-0.821 -1.037,-0.832c-0.276,-0.009 -0.591,-0.062 -0.907,-0.073c-0.318,-0.012 -0.835,0.087 -1.287,0.545c-0.452,0.458 -1.721,1.559 -1.808,3.892c-0.088,2.333 1.526,4.651 1.752,4.974c0.225,0.326 3.081,5.383 7.829,7.462c4.749,2.08 4.775,1.446 5.645,1.4c0.873,-0.047 2.848,-1.043 3.286,-2.134c0.437,-1.093 0.472,-2.042 0.361,-2.243c-0.112,-0.202 -0.424,-0.333 -0.888,-0.587" style="fill:#00c022;"/></svg>